<?xml version="1.0" encoding="utf-8" standalone="no"?>
<!DOCTYPE svg PUBLIC "-//W3C//DTD SVG 1.1//EN"
  "http://www.w3.org/Graphics/SVG/1.1/DTD/svg11.dtd">
<svg xmlns:xlink="http://www.w3.org/1999/xlink" width="984.3175pt" height="403.725319pt" viewBox="0 0 984.3175 403.725319" xmlns="http://www.w3.org/2000/svg" version="1.1">
 <metadata>
  <rdf:RDF xmlns:dc="http://purl.org/dc/elements/1.1/" xmlns:cc="http://creativecommons.org/ns#" xmlns:rdf="http://www.w3.org/1999/02/22-rdf-syntax-ns#">
   <cc:Work>
    <dc:type rdf:resource="http://purl.org/dc/dcmitype/StillImage"/>
    <dc:date>2025-06-06T14:13:13.586037</dc:date>
    <dc:format>image/svg+xml</dc:format>
    <dc:creator>
     <cc:Agent>
      <dc:title>Matplotlib v3.10.1, https://matplotlib.org/</dc:title>
     </cc:Agent>
    </dc:creator>
   </cc:Work>
  </rdf:RDF>
 </metadata>
 <defs>
  <style type="text/css">*{stroke-linejoin: round; stroke-linecap: butt}</style>
 </defs>
 <g id="figure_1">
  <g id="patch_1">
   <path d="M 0 403.725319 
L 984.3175 403.725319 
L 984.3175 0 
L 0 0 
z
" style="fill: #ffffff"/>
  </g>
  <g id="axes_1">
   <g id="patch_2">
    <path d="M 91.5175 332.64 
L 984.3175 332.64 
L 984.3175 0 
L 91.5175 0 
z
" style="fill: #ffffff"/>
   </g>
   <g id="FillBetweenPolyCollection_1">
    <path d="M 27.746071 256.454177 
L 27.746071 332.64 
L 1048.088929 332.64 
L 1048.088929 256.454177 
L 1048.088929 256.454177 
L 27.746071 256.454177 
z
" clip-path="url(#p68f158e52c)" style="fill: #7edf5e; fill-opacity: 0.3; stroke: #7edf5e; stroke-opacity: 0.3; stroke-width: 0.8"/>
   </g>
   <g id="matplotlib.axis_1">
    <g id="xtick_1">
     <g id="line2d_1">
      <defs>
       <path id="m8aa9add79f" d="M 0 0 
L 0 4.8 
" style="stroke: #000000"/>
      </defs>
      <g>
       <use xlink:href="#m8aa9add79f" x="155.288929" y="332.64" style="stroke: #000000"/>
      </g>
     </g>
     <g id="text_1">
      <!-- 1 -->
      <g transform="translate(157.046869 361.420472) rotate(-60) scale(0.22 -0.22)">
       <defs>
        <path id="DejaVuSans-31" d="M 794 531 
L 1825 531 
L 1825 4091 
L 703 3866 
L 703 4441 
L 1819 4666 
L 2450 4666 
L 2450 531 
L 3481 531 
L 3481 0 
L 794 0 
L 794 531 
z
" transform="scale(0.015625)"/>
       </defs>
       <use xlink:href="#DejaVuSans-31"/>
      </g>
     </g>
    </g>
    <g id="xtick_2">
     <g id="line2d_2">
      <g>
       <use xlink:href="#m8aa9add79f" x="282.831786" y="332.64" style="stroke: #000000"/>
      </g>
     </g>
     <g id="text_2">
      <!-- 3 -->
      <g transform="translate(284.589726 361.420472) rotate(-60) scale(0.22 -0.22)">
       <defs>
        <path id="DejaVuSans-33" d="M 2597 2516 
Q 3050 2419 3304 2112 
Q 3559 1806 3559 1356 
Q 3559 666 3084 287 
Q 2609 -91 1734 -91 
Q 1441 -91 1130 -33 
Q 819 25 488 141 
L 488 750 
Q 750 597 1062 519 
Q 1375 441 1716 441 
Q 2309 441 2620 675 
Q 2931 909 2931 1356 
Q 2931 1769 2642 2001 
Q 2353 2234 1838 2234 
L 1294 2234 
L 1294 2753 
L 1863 2753 
Q 2328 2753 2575 2939 
Q 2822 3125 2822 3475 
Q 2822 3834 2567 4026 
Q 2313 4219 1838 4219 
Q 1578 4219 1281 4162 
Q 984 4106 628 3988 
L 628 4550 
Q 988 4650 1302 4700 
Q 1616 4750 1894 4750 
Q 2613 4750 3031 4423 
Q 3450 4097 3450 3541 
Q 3450 3153 3228 2886 
Q 3006 2619 2597 2516 
z
" transform="scale(0.015625)"/>
       </defs>
       <use xlink:href="#DejaVuSans-33"/>
      </g>
     </g>
    </g>
    <g id="xtick_3">
     <g id="line2d_3">
      <g>
       <use xlink:href="#m8aa9add79f" x="410.374643" y="332.64" style="stroke: #000000"/>
      </g>
     </g>
     <g id="text_3">
      <!-- 4 -->
      <g transform="translate(412.132583 361.420472) rotate(-60) scale(0.22 -0.22)">
       <defs>
        <path id="DejaVuSans-34" d="M 2419 4116 
L 825 1625 
L 2419 1625 
L 2419 4116 
z
M 2253 4666 
L 3047 4666 
L 3047 1625 
L 3713 1625 
L 3713 1100 
L 3047 1100 
L 3047 0 
L 2419 0 
L 2419 1100 
L 313 1100 
L 313 1709 
L 2253 4666 
z
" transform="scale(0.015625)"/>
       </defs>
       <use xlink:href="#DejaVuSans-34"/>
      </g>
     </g>
    </g>
    <g id="xtick_4">
     <g id="line2d_4">
      <g>
       <use xlink:href="#m8aa9add79f" x="537.9175" y="332.64" style="stroke: #000000"/>
      </g>
     </g>
     <g id="text_4">
      <!-- 5 -->
      <g transform="translate(539.67544 361.420472) rotate(-60) scale(0.22 -0.22)">
       <defs>
        <path id="DejaVuSans-35" d="M 691 4666 
L 3169 4666 
L 3169 4134 
L 1269 4134 
L 1269 2991 
Q 1406 3038 1543 3061 
Q 1681 3084 1819 3084 
Q 2600 3084 3056 2656 
Q 3513 2228 3513 1497 
Q 3513 744 3044 326 
Q 2575 -91 1722 -91 
Q 1428 -91 1123 -41 
Q 819 9 494 109 
L 494 744 
Q 775 591 1075 516 
Q 1375 441 1709 441 
Q 2250 441 2565 725 
Q 2881 1009 2881 1497 
Q 2881 1984 2565 2268 
Q 2250 2553 1709 2553 
Q 1456 2553 1204 2497 
Q 953 2441 691 2322 
L 691 4666 
z
" transform="scale(0.015625)"/>
       </defs>
       <use xlink:href="#DejaVuSans-35"/>
      </g>
     </g>
    </g>
    <g id="xtick_5">
     <g id="line2d_5">
      <g>
       <use xlink:href="#m8aa9add79f" x="665.460357" y="332.64" style="stroke: #000000"/>
      </g>
     </g>
     <g id="text_5">
      <!-- 7 -->
      <g transform="translate(667.218298 361.420472) rotate(-60) scale(0.22 -0.22)">
       <defs>
        <path id="DejaVuSans-37" d="M 525 4666 
L 3525 4666 
L 3525 4397 
L 1831 0 
L 1172 0 
L 2766 4134 
L 525 4134 
L 525 4666 
z
" transform="scale(0.015625)"/>
       </defs>
       <use xlink:href="#DejaVuSans-37"/>
      </g>
     </g>
    </g>
    <g id="xtick_6">
     <g id="line2d_6">
      <g>
       <use xlink:href="#m8aa9add79f" x="793.003214" y="332.64" style="stroke: #000000"/>
      </g>
     </g>
     <g id="text_6">
      <!-- 8 -->
      <g transform="translate(794.761155 361.420472) rotate(-60) scale(0.22 -0.22)">
       <defs>
        <path id="DejaVuSans-38" d="M 2034 2216 
Q 1584 2216 1326 1975 
Q 1069 1734 1069 1313 
Q 1069 891 1326 650 
Q 1584 409 2034 409 
Q 2484 409 2743 651 
Q 3003 894 3003 1313 
Q 3003 1734 2745 1975 
Q 2488 2216 2034 2216 
z
M 1403 2484 
Q 997 2584 770 2862 
Q 544 3141 544 3541 
Q 544 4100 942 4425 
Q 1341 4750 2034 4750 
Q 2731 4750 3128 4425 
Q 3525 4100 3525 3541 
Q 3525 3141 3298 2862 
Q 3072 2584 2669 2484 
Q 3125 2378 3379 2068 
Q 3634 1759 3634 1313 
Q 3634 634 3220 271 
Q 2806 -91 2034 -91 
Q 1263 -91 848 271 
Q 434 634 434 1313 
Q 434 1759 690 2068 
Q 947 2378 1403 2484 
z
M 1172 3481 
Q 1172 3119 1398 2916 
Q 1625 2713 2034 2713 
Q 2441 2713 2670 2916 
Q 2900 3119 2900 3481 
Q 2900 3844 2670 4047 
Q 2441 4250 2034 4250 
Q 1625 4250 1398 4047 
Q 1172 3844 1172 3481 
z
" transform="scale(0.015625)"/>
       </defs>
       <use xlink:href="#DejaVuSans-38"/>
      </g>
     </g>
    </g>
    <g id="xtick_7">
     <g id="line2d_7">
      <g>
       <use xlink:href="#m8aa9add79f" x="920.546071" y="332.64" style="stroke: #000000"/>
      </g>
     </g>
     <g id="text_7">
      <!-- 16 -->
      <g transform="translate(918.804637 373.542662) rotate(-60) scale(0.22 -0.22)">
       <defs>
        <path id="DejaVuSans-36" d="M 2113 2584 
Q 1688 2584 1439 2293 
Q 1191 2003 1191 1497 
Q 1191 994 1439 701 
Q 1688 409 2113 409 
Q 2538 409 2786 701 
Q 3034 994 3034 1497 
Q 3034 2003 2786 2293 
Q 2538 2584 2113 2584 
z
M 3366 4563 
L 3366 3988 
Q 3128 4100 2886 4159 
Q 2644 4219 2406 4219 
Q 1781 4219 1451 3797 
Q 1122 3375 1075 2522 
Q 1259 2794 1537 2939 
Q 1816 3084 2150 3084 
Q 2853 3084 3261 2657 
Q 3669 2231 3669 1497 
Q 3669 778 3244 343 
Q 2819 -91 2113 -91 
Q 1303 -91 875 529 
Q 447 1150 447 2328 
Q 447 3434 972 4092 
Q 1497 4750 2381 4750 
Q 2619 4750 2861 4703 
Q 3103 4656 3366 4563 
z
" transform="scale(0.015625)"/>
       </defs>
       <use xlink:href="#DejaVuSans-31"/>
       <use xlink:href="#DejaVuSans-36" transform="translate(63.623047 0)"/>
      </g>
     </g>
    </g>
    <g id="text_8">
     <!-- B_id -->
     <g transform="translate(512.7325 398.066569) scale(0.24 -0.24)">
      <defs>
       <path id="DejaVuSans-42" d="M 1259 2228 
L 1259 519 
L 2272 519 
Q 2781 519 3026 730 
Q 3272 941 3272 1375 
Q 3272 1813 3026 2020 
Q 2781 2228 2272 2228 
L 1259 2228 
z
M 1259 4147 
L 1259 2741 
L 2194 2741 
Q 2656 2741 2882 2914 
Q 3109 3088 3109 3444 
Q 3109 3797 2882 3972 
Q 2656 4147 2194 4147 
L 1259 4147 
z
M 628 4666 
L 2241 4666 
Q 2963 4666 3353 4366 
Q 3744 4066 3744 3513 
Q 3744 3084 3544 2831 
Q 3344 2578 2956 2516 
Q 3422 2416 3680 2098 
Q 3938 1781 3938 1306 
Q 3938 681 3513 340 
Q 3088 0 2303 0 
L 628 0 
L 628 4666 
z
" transform="scale(0.015625)"/>
       <path id="DejaVuSans-5f" d="M 3263 -1063 
L 3263 -1509 
L -63 -1509 
L -63 -1063 
L 3263 -1063 
z
" transform="scale(0.015625)"/>
       <path id="DejaVuSans-69" d="M 603 3500 
L 1178 3500 
L 1178 0 
L 603 0 
L 603 3500 
z
M 603 4863 
L 1178 4863 
L 1178 4134 
L 603 4134 
L 603 4863 
z
" transform="scale(0.015625)"/>
       <path id="DejaVuSans-64" d="M 2906 2969 
L 2906 4863 
L 3481 4863 
L 3481 0 
L 2906 0 
L 2906 525 
Q 2725 213 2448 61 
Q 2172 -91 1784 -91 
Q 1150 -91 751 415 
Q 353 922 353 1747 
Q 353 2572 751 3078 
Q 1150 3584 1784 3584 
Q 2172 3584 2448 3432 
Q 2725 3281 2906 2969 
z
M 947 1747 
Q 947 1113 1208 752 
Q 1469 391 1925 391 
Q 2381 391 2643 752 
Q 2906 1113 2906 1747 
Q 2906 2381 2643 2742 
Q 2381 3103 1925 3103 
Q 1469 3103 1208 2742 
Q 947 2381 947 1747 
z
" transform="scale(0.015625)"/>
      </defs>
      <use xlink:href="#DejaVuSans-42"/>
      <use xlink:href="#DejaVuSans-5f" transform="translate(68.603516 0)"/>
      <use xlink:href="#DejaVuSans-69" transform="translate(118.603516 0)"/>
      <use xlink:href="#DejaVuSans-64" transform="translate(146.386719 0)"/>
     </g>
    </g>
   </g>
   <g id="matplotlib.axis_2">
    <g id="ytick_1">
     <g id="line2d_8">
      <defs>
       <path id="m63dd97be84" d="M 0 0 
L -4.8 0 
" style="stroke: #000000"/>
      </defs>
      <g>
       <use xlink:href="#m63dd97be84" x="91.5175" y="332.64" style="stroke: #000000"/>
      </g>
     </g>
     <g id="text_9">
      <!-- 0 -->
      <g transform="translate(69.22 340.998281) scale(0.22 -0.22)">
       <defs>
        <path id="DejaVuSans-30" d="M 2034 4250 
Q 1547 4250 1301 3770 
Q 1056 3291 1056 2328 
Q 1056 1369 1301 889 
Q 1547 409 2034 409 
Q 2525 409 2770 889 
Q 3016 1369 3016 2328 
Q 3016 3291 2770 3770 
Q 2525 4250 2034 4250 
z
M 2034 4750 
Q 2819 4750 3233 4129 
Q 3647 3509 3647 2328 
Q 3647 1150 3233 529 
Q 2819 -91 2034 -91 
Q 1250 -91 836 529 
Q 422 1150 422 2328 
Q 422 3509 836 4129 
Q 1250 4750 2034 4750 
z
" transform="scale(0.015625)"/>
       </defs>
       <use xlink:href="#DejaVuSans-30"/>
      </g>
     </g>
    </g>
    <g id="ytick_2">
     <g id="line2d_9">
      <g>
       <use xlink:href="#m63dd97be84" x="91.5175" y="281.849451" style="stroke: #000000"/>
      </g>
     </g>
     <g id="text_10">
      <!-- 200 -->
      <g transform="translate(41.225 290.207733) scale(0.22 -0.22)">
       <defs>
        <path id="DejaVuSans-32" d="M 1228 531 
L 3431 531 
L 3431 0 
L 469 0 
L 469 531 
Q 828 903 1448 1529 
Q 2069 2156 2228 2338 
Q 2531 2678 2651 2914 
Q 2772 3150 2772 3378 
Q 2772 3750 2511 3984 
Q 2250 4219 1831 4219 
Q 1534 4219 1204 4116 
Q 875 4013 500 3803 
L 500 4441 
Q 881 4594 1212 4672 
Q 1544 4750 1819 4750 
Q 2544 4750 2975 4387 
Q 3406 4025 3406 3419 
Q 3406 3131 3298 2873 
Q 3191 2616 2906 2266 
Q 2828 2175 2409 1742 
Q 1991 1309 1228 531 
z
" transform="scale(0.015625)"/>
       </defs>
       <use xlink:href="#DejaVuSans-32"/>
       <use xlink:href="#DejaVuSans-30" transform="translate(63.623047 0)"/>
       <use xlink:href="#DejaVuSans-30" transform="translate(127.246094 0)"/>
      </g>
     </g>
    </g>
    <g id="ytick_3">
     <g id="line2d_10">
      <g>
       <use xlink:href="#m63dd97be84" x="91.5175" y="231.058903" style="stroke: #000000"/>
      </g>
     </g>
     <g id="text_11">
      <!-- 400 -->
      <g transform="translate(41.225 239.417184) scale(0.22 -0.22)">
       <use xlink:href="#DejaVuSans-34"/>
       <use xlink:href="#DejaVuSans-30" transform="translate(63.623047 0)"/>
       <use xlink:href="#DejaVuSans-30" transform="translate(127.246094 0)"/>
      </g>
     </g>
    </g>
    <g id="ytick_4">
     <g id="line2d_11">
      <g>
       <use xlink:href="#m63dd97be84" x="91.5175" y="180.268354" style="stroke: #000000"/>
      </g>
     </g>
     <g id="text_12">
      <!-- 600 -->
      <g transform="translate(41.225 188.626636) scale(0.22 -0.22)">
       <use xlink:href="#DejaVuSans-36"/>
       <use xlink:href="#DejaVuSans-30" transform="translate(63.623047 0)"/>
       <use xlink:href="#DejaVuSans-30" transform="translate(127.246094 0)"/>
      </g>
     </g>
    </g>
    <g id="ytick_5">
     <g id="line2d_12">
      <g>
       <use xlink:href="#m63dd97be84" x="91.5175" y="129.477806" style="stroke: #000000"/>
      </g>
     </g>
     <g id="text_13">
      <!-- 800 -->
      <g transform="translate(41.225 137.836087) scale(0.22 -0.22)">
       <use xlink:href="#DejaVuSans-38"/>
       <use xlink:href="#DejaVuSans-30" transform="translate(63.623047 0)"/>
       <use xlink:href="#DejaVuSans-30" transform="translate(127.246094 0)"/>
      </g>
     </g>
    </g>
    <g id="ytick_6">
     <g id="line2d_13">
      <g>
       <use xlink:href="#m63dd97be84" x="91.5175" y="78.687257" style="stroke: #000000"/>
      </g>
     </g>
     <g id="text_14">
      <!-- 1000 -->
      <g transform="translate(27.2275 87.045539) scale(0.22 -0.22)">
       <use xlink:href="#DejaVuSans-31"/>
       <use xlink:href="#DejaVuSans-30" transform="translate(63.623047 0)"/>
       <use xlink:href="#DejaVuSans-30" transform="translate(127.246094 0)"/>
       <use xlink:href="#DejaVuSans-30" transform="translate(190.869141 0)"/>
      </g>
     </g>
    </g>
    <g id="ytick_7">
     <g id="line2d_14">
      <g>
       <use xlink:href="#m63dd97be84" x="91.5175" y="27.896709" style="stroke: #000000"/>
      </g>
     </g>
     <g id="text_15">
      <!-- 1200 -->
      <g transform="translate(27.2275 36.25499) scale(0.22 -0.22)">
       <use xlink:href="#DejaVuSans-31"/>
       <use xlink:href="#DejaVuSans-32" transform="translate(63.623047 0)"/>
       <use xlink:href="#DejaVuSans-30" transform="translate(127.246094 0)"/>
       <use xlink:href="#DejaVuSans-30" transform="translate(190.869141 0)"/>
      </g>
     </g>
    </g>
    <g id="text_16">
     <!-- HLM -->
     <g transform="translate(18.23625 192.384375) rotate(-90) scale(0.24 -0.24)">
      <defs>
       <path id="DejaVuSans-48" d="M 628 4666 
L 1259 4666 
L 1259 2753 
L 3553 2753 
L 3553 4666 
L 4184 4666 
L 4184 0 
L 3553 0 
L 3553 2222 
L 1259 2222 
L 1259 0 
L 628 0 
L 628 4666 
z
" transform="scale(0.015625)"/>
       <path id="DejaVuSans-4c" d="M 628 4666 
L 1259 4666 
L 1259 531 
L 3531 531 
L 3531 0 
L 628 0 
L 628 4666 
z
" transform="scale(0.015625)"/>
       <path id="DejaVuSans-4d" d="M 628 4666 
L 1569 4666 
L 2759 1491 
L 3956 4666 
L 4897 4666 
L 4897 0 
L 4281 0 
L 4281 4097 
L 3078 897 
L 2444 897 
L 1241 4097 
L 1241 0 
L 628 0 
L 628 4666 
z
" transform="scale(0.015625)"/>
      </defs>
      <use xlink:href="#DejaVuSans-48"/>
      <use xlink:href="#DejaVuSans-4c" transform="translate(75.195312 0)"/>
      <use xlink:href="#DejaVuSans-4d" transform="translate(130.908203 0)"/>
     </g>
    </g>
   </g>
   <g id="patch_3">
    <path d="M 104.271786 232.963548 
L 206.306071 232.963548 
L 206.306071 70.17984 
L 104.271786 70.17984 
L 104.271786 232.963548 
z
" clip-path="url(#p68f158e52c)" style="fill: #45842e; stroke: #353535; stroke-linejoin: miter"/>
   </g>
   <g id="line2d_15">
    <path d="M 155.288929 232.963548 
L 155.288929 276.770397 
" clip-path="url(#p68f158e52c)" style="fill: none; stroke: #353535"/>
   </g>
   <g id="line2d_16">
    <path d="M 155.288929 70.17984 
L 155.288929 15.199072 
" clip-path="url(#p68f158e52c)" style="fill: none; stroke: #353535"/>
   </g>
   <g id="line2d_17">
    <path d="M 129.780357 276.770397 
L 180.7975 276.770397 
" clip-path="url(#p68f158e52c)" style="fill: none; stroke: #353535; stroke-linecap: square"/>
   </g>
   <g id="line2d_18">
    <path d="M 129.780357 15.199072 
L 180.7975 15.199072 
" clip-path="url(#p68f158e52c)" style="fill: none; stroke: #353535; stroke-linecap: square"/>
   </g>
   <g id="line2d_19"/>
   <g id="patch_4">
    <path d="M 231.814643 216.202667 
L 333.848929 216.202667 
L 333.848929 31.515535 
L 231.814643 31.515535 
L 231.814643 216.202667 
z
" clip-path="url(#p68f158e52c)" style="fill: #45842e; stroke: #353535; stroke-linejoin: miter"/>
   </g>
   <g id="line2d_20">
    <path d="M 282.831786 216.202667 
L 282.831786 290.737797 
" clip-path="url(#p68f158e52c)" style="fill: none; stroke: #353535"/>
   </g>
   <g id="line2d_21">
    <path d="M 282.831786 31.515535 
L 282.831786 15.199072 
" clip-path="url(#p68f158e52c)" style="fill: none; stroke: #353535"/>
   </g>
   <g id="line2d_22">
    <path d="M 257.323214 290.737797 
L 308.340357 290.737797 
" clip-path="url(#p68f158e52c)" style="fill: none; stroke: #353535; stroke-linecap: square"/>
   </g>
   <g id="line2d_23">
    <path d="M 257.323214 15.199072 
L 308.340357 15.199072 
" clip-path="url(#p68f158e52c)" style="fill: none; stroke: #353535; stroke-linecap: square"/>
   </g>
   <g id="line2d_24"/>
   <g id="patch_5">
    <path d="M 359.3575 183.315787 
L 461.391786 183.315787 
L 461.391786 15.199072 
L 359.3575 15.199072 
L 359.3575 183.315787 
z
" clip-path="url(#p68f158e52c)" style="fill: #45842e; stroke: #353535; stroke-linejoin: miter"/>
   </g>
   <g id="line2d_25">
    <path d="M 410.374643 183.315787 
L 410.374643 262.29509 
" clip-path="url(#p68f158e52c)" style="fill: none; stroke: #353535"/>
   </g>
   <g id="line2d_26">
    <path d="M 410.374643 15.199072 
L 410.374643 15.199072 
" clip-path="url(#p68f158e52c)" style="fill: none; stroke: #353535"/>
   </g>
   <g id="line2d_27">
    <path d="M 384.866071 262.29509 
L 435.883214 262.29509 
" clip-path="url(#p68f158e52c)" style="fill: none; stroke: #353535; stroke-linecap: square"/>
   </g>
   <g id="line2d_28">
    <path d="M 384.866071 15.199072 
L 435.883214 15.199072 
" clip-path="url(#p68f158e52c)" style="fill: none; stroke: #353535; stroke-linecap: square"/>
   </g>
   <g id="line2d_29"/>
   <g id="patch_6">
    <path d="M 486.900357 303.181482 
L 588.934643 303.181482 
L 588.934643 227.503565 
L 486.900357 227.503565 
L 486.900357 303.181482 
z
" clip-path="url(#p68f158e52c)" style="fill: #45842e; stroke: #353535; stroke-linejoin: miter"/>
   </g>
   <g id="line2d_30">
    <path d="M 537.9175 303.181482 
L 537.9175 319.180505 
" clip-path="url(#p68f158e52c)" style="fill: none; stroke: #353535"/>
   </g>
   <g id="line2d_31">
    <path d="M 537.9175 227.503565 
L 537.9175 162.999568 
" clip-path="url(#p68f158e52c)" style="fill: none; stroke: #353535"/>
   </g>
   <g id="line2d_32">
    <path d="M 512.408929 319.180505 
L 563.426071 319.180505 
" clip-path="url(#p68f158e52c)" style="fill: none; stroke: #353535; stroke-linecap: square"/>
   </g>
   <g id="line2d_33">
    <path d="M 512.408929 162.999568 
L 563.426071 162.999568 
" clip-path="url(#p68f158e52c)" style="fill: none; stroke: #353535; stroke-linecap: square"/>
   </g>
   <g id="line2d_34"/>
   <g id="patch_7">
    <path d="M 614.443214 231.693785 
L 716.4775 231.693785 
L 716.4775 104.84439 
L 614.443214 104.84439 
L 614.443214 231.693785 
z
" clip-path="url(#p68f158e52c)" style="fill: #45842e; stroke: #353535; stroke-linejoin: miter"/>
   </g>
   <g id="line2d_35">
    <path d="M 665.460357 231.693785 
L 665.460357 310.292159 
" clip-path="url(#p68f158e52c)" style="fill: none; stroke: #353535"/>
   </g>
   <g id="line2d_36">
    <path d="M 665.460357 104.84439 
L 665.460357 15.199072 
" clip-path="url(#p68f158e52c)" style="fill: none; stroke: #353535"/>
   </g>
   <g id="line2d_37">
    <path d="M 639.951786 310.292159 
L 690.968929 310.292159 
" clip-path="url(#p68f158e52c)" style="fill: none; stroke: #353535; stroke-linecap: square"/>
   </g>
   <g id="line2d_38">
    <path d="M 639.951786 15.199072 
L 690.968929 15.199072 
" clip-path="url(#p68f158e52c)" style="fill: none; stroke: #353535; stroke-linecap: square"/>
   </g>
   <g id="line2d_39"/>
   <g id="patch_8">
    <path d="M 741.986071 122.557594 
L 844.020357 122.557594 
L 844.020357 15.199072 
L 741.986071 15.199072 
L 741.986071 122.557594 
z
" clip-path="url(#p68f158e52c)" style="fill: #45842e; stroke: #353535; stroke-linejoin: miter"/>
   </g>
   <g id="line2d_40">
    <path d="M 793.003214 122.557594 
L 793.003214 277.786208 
" clip-path="url(#p68f158e52c)" style="fill: none; stroke: #353535"/>
   </g>
   <g id="line2d_41">
    <path d="M 793.003214 15.199072 
L 793.003214 15.199072 
" clip-path="url(#p68f158e52c)" style="fill: none; stroke: #353535"/>
   </g>
   <g id="line2d_42">
    <path d="M 767.494643 277.786208 
L 818.511786 277.786208 
" clip-path="url(#p68f158e52c)" style="fill: none; stroke: #353535; stroke-linecap: square"/>
   </g>
   <g id="line2d_43">
    <path d="M 767.494643 15.199072 
L 818.511786 15.199072 
" clip-path="url(#p68f158e52c)" style="fill: none; stroke: #353535; stroke-linecap: square"/>
   </g>
   <g id="line2d_44">
    <defs>
     <path id="mf0c8d0d2d6" d="M 0 2.4 
C 0.636487 2.4 1.246992 2.147121 1.697056 1.697056 
C 2.147121 1.246992 2.4 0.636487 2.4 0 
C 2.4 -0.636487 2.147121 -1.246992 1.697056 -1.697056 
C 1.246992 -2.147121 0.636487 -2.4 0 -2.4 
C -0.636487 -2.4 -1.246992 -2.147121 -1.697056 -1.697056 
C -2.147121 -1.246992 -2.4 -0.636487 -2.4 0 
C -2.4 0.636487 -2.147121 1.246992 -1.697056 1.697056 
C -1.246992 2.147121 -0.636487 2.4 0 2.4 
z
" style="stroke: #353535"/>
    </defs>
    <g clip-path="url(#p68f158e52c)">
     <use xlink:href="#mf0c8d0d2d6" x="793.003214" y="298.610332" style="fill-opacity: 0; stroke: #353535"/>
    </g>
   </g>
   <g id="patch_9">
    <path d="M 869.528929 128.588971 
L 971.563214 128.588971 
L 971.563214 15.199072 
L 869.528929 15.199072 
L 869.528929 128.588971 
z
" clip-path="url(#p68f158e52c)" style="fill: #45842e; stroke: #353535; stroke-linejoin: miter"/>
   </g>
   <g id="line2d_45">
    <path d="M 920.546071 128.588971 
L 920.546071 241.978871 
" clip-path="url(#p68f158e52c)" style="fill: none; stroke: #353535"/>
   </g>
   <g id="line2d_46">
    <path d="M 920.546071 15.199072 
L 920.546071 15.199072 
" clip-path="url(#p68f158e52c)" style="fill: none; stroke: #353535"/>
   </g>
   <g id="line2d_47">
    <path d="M 895.0375 241.978871 
L 946.054643 241.978871 
" clip-path="url(#p68f158e52c)" style="fill: none; stroke: #353535; stroke-linecap: square"/>
   </g>
   <g id="line2d_48">
    <path d="M 895.0375 15.199072 
L 946.054643 15.199072 
" clip-path="url(#p68f158e52c)" style="fill: none; stroke: #353535; stroke-linecap: square"/>
   </g>
   <g id="line2d_49">
    <g clip-path="url(#p68f158e52c)">
     <use xlink:href="#mf0c8d0d2d6" x="920.546071" y="315.625166" style="fill-opacity: 0; stroke: #353535"/>
     <use xlink:href="#mf0c8d0d2d6" x="920.546071" y="312.069828" style="fill-opacity: 0; stroke: #353535"/>
     <use xlink:href="#mf0c8d0d2d6" x="920.546071" y="306.73682" style="fill-opacity: 0; stroke: #353535"/>
    </g>
   </g>
   <g id="line2d_50">
    <path d="M 91.5175 256.454177 
L 984.3175 256.454177 
" clip-path="url(#p68f158e52c)" style="fill: none; stroke-dasharray: 3.7,1.6; stroke-dashoffset: 0; stroke: #33931f"/>
   </g>
   <g id="line2d_51">
    <path d="M 104.271786 152.333553 
L 206.306071 152.333553 
" clip-path="url(#p68f158e52c)" style="fill: none; stroke: #353535"/>
   </g>
   <g id="line2d_52">
    <path d="M 231.814643 133.287097 
L 333.848929 133.287097 
" clip-path="url(#p68f158e52c)" style="fill: none; stroke: #353535"/>
   </g>
   <g id="line2d_53">
    <path d="M 359.3575 100.781146 
L 461.391786 100.781146 
" clip-path="url(#p68f158e52c)" style="fill: none; stroke: #353535"/>
   </g>
   <g id="line2d_54">
    <path d="M 486.900357 273.976916 
L 588.934643 273.976916 
" clip-path="url(#p68f158e52c)" style="fill: none; stroke: #353535"/>
   </g>
   <g id="line2d_55">
    <path d="M 614.443214 178.998591 
L 716.4775 178.998591 
" clip-path="url(#p68f158e52c)" style="fill: none; stroke: #353535"/>
   </g>
   <g id="line2d_56">
    <path d="M 741.986071 15.199072 
L 844.020357 15.199072 
" clip-path="url(#p68f158e52c)" style="fill: none; stroke: #353535"/>
   </g>
   <g id="line2d_57">
    <path d="M 869.528929 15.199072 
L 971.563214 15.199072 
" clip-path="url(#p68f158e52c)" style="fill: none; stroke: #353535"/>
   </g>
   <g id="patch_10">
    <path d="M 91.5175 332.64 
L 91.5175 0 
" style="fill: none; stroke: #000000; stroke-linejoin: miter; stroke-linecap: square"/>
   </g>
   <g id="patch_11">
    <path d="M 984.3175 332.64 
L 984.3175 0 
" style="fill: none; stroke: #000000; stroke-linejoin: miter; stroke-linecap: square"/>
   </g>
   <g id="patch_12">
    <path d="M 91.5175 332.64 
L 984.3175 332.64 
" style="fill: none; stroke: #000000; stroke-linejoin: miter; stroke-linecap: square"/>
   </g>
   <g id="patch_13">
    <path d="M 91.5175 0 
L 984.3175 0 
" style="fill: none; stroke: #000000; stroke-linejoin: miter; stroke-linecap: square"/>
   </g>
   <g id="text_17">
    <!-- 27 -->
    <g style="fill: #33931f" transform="translate(147.653929 12.57647) scale(0.12 -0.12)">
     <use xlink:href="#DejaVuSans-32"/>
     <use xlink:href="#DejaVuSans-37" transform="translate(63.623047 0)"/>
    </g>
   </g>
   <g id="text_18">
    <!-- 6 -->
    <g style="fill: #33931f" transform="translate(279.014286 12.57647) scale(0.12 -0.12)">
     <use xlink:href="#DejaVuSans-36"/>
    </g>
   </g>
   <g id="text_19">
    <!-- 13 -->
    <g style="fill: #33931f" transform="translate(402.739643 12.57647) scale(0.12 -0.12)">
     <use xlink:href="#DejaVuSans-31"/>
     <use xlink:href="#DejaVuSans-33" transform="translate(63.623047 0)"/>
    </g>
   </g>
   <g id="text_20">
    <!-- 43 -->
    <g style="fill: #33931f" transform="translate(530.2825 160.376967) scale(0.12 -0.12)">
     <use xlink:href="#DejaVuSans-34"/>
     <use xlink:href="#DejaVuSans-33" transform="translate(63.623047 0)"/>
    </g>
   </g>
   <g id="text_21">
    <!-- 42 -->
    <g style="fill: #33931f" transform="translate(657.825357 12.57647) scale(0.12 -0.12)">
     <use xlink:href="#DejaVuSans-34"/>
     <use xlink:href="#DejaVuSans-32" transform="translate(63.623047 0)"/>
    </g>
   </g>
   <g id="text_22">
    <!-- 22 -->
    <g style="fill: #33931f" transform="translate(785.368214 12.57647) scale(0.12 -0.12)">
     <use xlink:href="#DejaVuSans-32"/>
     <use xlink:href="#DejaVuSans-32" transform="translate(63.623047 0)"/>
    </g>
   </g>
   <g id="text_23">
    <!-- 15 -->
    <g style="fill: #33931f" transform="translate(912.911071 12.57647) scale(0.12 -0.12)">
     <use xlink:href="#DejaVuSans-31"/>
     <use xlink:href="#DejaVuSans-35" transform="translate(63.623047 0)"/>
    </g>
   </g>
  </g>
 </g>
 <defs>
  <clipPath id="p68f158e52c">
   <rect x="91.5175" y="0" width="892.8" height="332.64"/>
  </clipPath>
 </defs>
</svg>
